<?xml version="1.0" encoding="UTF-8" standalone="no"?>
<!DOCTYPE svg PUBLIC "-//W3C//DTD SVG 1.1//EN" "http://www.w3.org/Graphics/SVG/1.1/DTD/svg11.dtd">
<svg width="100%" height="100%" viewBox="0 0 512 512" version="1.1" xmlns="http://www.w3.org/2000/svg" xmlns:xlink="http://www.w3.org/1999/xlink" xml:space="preserve" xmlns:serif="http://www.serif.com/" style="fill-rule:evenodd;clip-rule:evenodd;stroke-linejoin:round;stroke-miterlimit:2;">
    <path d="M263.801,123.102L256,118.598L248.199,123.102C244.301,125.5 151,182.199 151,256C151,329.801 244.301,386.5 248.199,388.898L256,393.398L263.801,388.898C267.699,386.5 361,329.801 361,256C361,182.199 267.699,125.5 263.801,123.102Z" style="fill:rgb(182,245,0);fill-rule:nonzero;"/>
    <path d="M361,256C361,329.801 267.699,386.5 263.801,388.898L256,393.398L256,118.598L263.801,123.102C267.699,125.5 361,182.199 361,256Z" style="fill:rgb(77,197,16);fill-rule:nonzero;"/>
    <path d="M311.5,251.5L271,292.301L271,481L241,481L241,292.301L200.5,251.5L221.5,230.5L241,249.699L241,196L271,196L271,249.699L290.5,230.5L311.5,251.5Z" style="fill:rgb(185,135,77);fill-rule:nonzero;"/>
    <path d="M311.5,251.5L271,292.301L271,481L256,481L256,196L271,196L271,249.699L290.5,230.5L311.5,251.5Z" style="fill:rgb(150,84,12);fill-rule:nonzero;"/>
    <path d="M444.887,85.121L464.898,65.117L411.898,54.516L343.859,28.906L369.652,97.871L380.07,149.93L402.395,127.613C432.551,161.953 451,206.813 451,256C451,298.43 437.227,337.617 414.125,369.664L457.465,411.93C490.898,368.793 512,314.801 512,256C512,190.172 485.84,130.363 444.887,85.121Z" style="fill:rgb(0,204,187);fill-rule:nonzero;"/>
    <path d="M468.102,358.898L457.598,412L446.801,464.797L427,445C381.699,485.801 321.699,512 256,512C197.199,512 143.199,490.898 100,457.598L142.301,414.098C174.402,437.199 213.699,451 256,451C305.199,451 349.898,432.699 384.402,402.398L362.199,380.199L414.102,369.699L468.102,358.898Z" style="fill:rgb(0,242,231);fill-rule:nonzero;"/>
    <path d="M142.348,414.129L131.93,362.07L109.605,384.387C79.449,350.047 61,305.188 61,256C61,213.574 74.773,174.387 97.871,142.344L54.516,100.102C21.094,143.23 0,197.211 0,256C0,321.828 26.16,381.633 67.113,426.875L47.102,446.883L100.102,457.484L153.141,468.094L142.348,414.129Z" style="fill:rgb(34,230,211);fill-rule:nonzero;"/>
    <path d="M358.898,43.898L369.699,97.898C337.598,74.801 298.301,61 256,61C206.801,61 162.102,79.301 127.598,109.602L149.801,131.801L97.898,142.301L43.898,153.102L54.402,100L65.199,47.199L85,67C130.301,26.199 190.301,0 256,0C314.801,0 368.801,21.098 412,54.398L358.898,43.898Z" style="fill:rgb(112,242,231);fill-rule:nonzero;"/>
</svg>
